<mxfile host="app.diagrams.net" modified="2021-12-28T07:49:54.971Z" agent="5.0 (Windows NT 10.0; Win64; x64) AppleWebKit/537.36 (KHTML, like Gecko) Chrome/96.0.4664.110 Safari/537.36" etag="bVHm_M7s8V_GBn6rSt5j" version="16.1.0" type="github">
  <diagram id="fzpYouUcjPRdYHAFQaU7" name="Page-1">
    <mxGraphModel dx="2172" dy="724" grid="1" gridSize="10" guides="1" tooltips="1" connect="1" arrows="1" fold="1" page="1" pageScale="1" pageWidth="827" pageHeight="1169" math="0" shadow="0">
      <root>
        <mxCell id="0" />
        <mxCell id="1" parent="0" />
        <mxCell id="MjRy1rSu0ClUME5qkxlQ-5" value="" style="edgeStyle=orthogonalEdgeStyle;rounded=0;orthogonalLoop=1;jettySize=auto;html=1;curved=1;entryX=0.5;entryY=0;entryDx=0;entryDy=0;exitX=0.5;exitY=1;exitDx=0;exitDy=0;" edge="1" parent="1" source="MjRy1rSu0ClUME5qkxlQ-1" target="MjRy1rSu0ClUME5qkxlQ-4">
          <mxGeometry relative="1" as="geometry" />
        </mxCell>
        <mxCell id="MjRy1rSu0ClUME5qkxlQ-34" style="edgeStyle=orthogonalEdgeStyle;curved=1;rounded=0;orthogonalLoop=1;jettySize=auto;html=1;exitX=1;exitY=1;exitDx=0;exitDy=0;entryX=0.5;entryY=0;entryDx=0;entryDy=0;" edge="1" parent="1" source="MjRy1rSu0ClUME5qkxlQ-1" target="MjRy1rSu0ClUME5qkxlQ-30">
          <mxGeometry relative="1" as="geometry" />
        </mxCell>
        <mxCell id="MjRy1rSu0ClUME5qkxlQ-202" style="edgeStyle=orthogonalEdgeStyle;curved=1;rounded=0;orthogonalLoop=1;jettySize=auto;html=1;exitX=1;exitY=0.5;exitDx=0;exitDy=0;entryX=0;entryY=0;entryDx=0;entryDy=0;" edge="1" parent="1" source="MjRy1rSu0ClUME5qkxlQ-1" target="MjRy1rSu0ClUME5qkxlQ-200">
          <mxGeometry relative="1" as="geometry" />
        </mxCell>
        <mxCell id="MjRy1rSu0ClUME5qkxlQ-1" value="企业" style="ellipse;whiteSpace=wrap;html=1;aspect=fixed;" vertex="1" parent="1">
          <mxGeometry x="360" width="40" height="40" as="geometry" />
        </mxCell>
        <mxCell id="MjRy1rSu0ClUME5qkxlQ-18" style="edgeStyle=orthogonalEdgeStyle;curved=1;rounded=0;orthogonalLoop=1;jettySize=auto;html=1;exitX=0;exitY=1;exitDx=0;exitDy=0;entryX=0.5;entryY=0;entryDx=0;entryDy=0;" edge="1" parent="1" source="MjRy1rSu0ClUME5qkxlQ-4" target="MjRy1rSu0ClUME5qkxlQ-17">
          <mxGeometry relative="1" as="geometry" />
        </mxCell>
        <mxCell id="MjRy1rSu0ClUME5qkxlQ-19" style="edgeStyle=orthogonalEdgeStyle;curved=1;rounded=0;orthogonalLoop=1;jettySize=auto;html=1;exitX=0.5;exitY=1;exitDx=0;exitDy=0;entryX=0.5;entryY=0;entryDx=0;entryDy=0;" edge="1" parent="1" source="MjRy1rSu0ClUME5qkxlQ-4" target="MjRy1rSu0ClUME5qkxlQ-10">
          <mxGeometry relative="1" as="geometry" />
        </mxCell>
        <mxCell id="MjRy1rSu0ClUME5qkxlQ-20" style="edgeStyle=orthogonalEdgeStyle;curved=1;rounded=0;orthogonalLoop=1;jettySize=auto;html=1;exitX=1;exitY=1;exitDx=0;exitDy=0;entryX=0.5;entryY=0;entryDx=0;entryDy=0;" edge="1" parent="1" source="MjRy1rSu0ClUME5qkxlQ-4" target="MjRy1rSu0ClUME5qkxlQ-7">
          <mxGeometry relative="1" as="geometry" />
        </mxCell>
        <mxCell id="MjRy1rSu0ClUME5qkxlQ-21" style="edgeStyle=orthogonalEdgeStyle;curved=1;rounded=0;orthogonalLoop=1;jettySize=auto;html=1;exitX=1;exitY=0.5;exitDx=0;exitDy=0;entryX=0.5;entryY=0;entryDx=0;entryDy=0;" edge="1" parent="1" source="MjRy1rSu0ClUME5qkxlQ-4" target="MjRy1rSu0ClUME5qkxlQ-15">
          <mxGeometry relative="1" as="geometry" />
        </mxCell>
        <mxCell id="MjRy1rSu0ClUME5qkxlQ-4" value="地址" style="ellipse;whiteSpace=wrap;html=1;aspect=fixed;" vertex="1" parent="1">
          <mxGeometry x="200" y="80" width="40" height="40" as="geometry" />
        </mxCell>
        <mxCell id="MjRy1rSu0ClUME5qkxlQ-29" style="edgeStyle=orthogonalEdgeStyle;curved=1;rounded=0;orthogonalLoop=1;jettySize=auto;html=1;exitX=1;exitY=0.5;exitDx=0;exitDy=0;entryX=0;entryY=0.5;entryDx=0;entryDy=0;" edge="1" parent="1" source="MjRy1rSu0ClUME5qkxlQ-7" target="MjRy1rSu0ClUME5qkxlQ-15">
          <mxGeometry relative="1" as="geometry" />
        </mxCell>
        <mxCell id="MjRy1rSu0ClUME5qkxlQ-7" value="区" style="ellipse;whiteSpace=wrap;html=1;aspect=fixed;" vertex="1" parent="1">
          <mxGeometry x="220" y="160" width="40" height="40" as="geometry" />
        </mxCell>
        <mxCell id="MjRy1rSu0ClUME5qkxlQ-28" style="edgeStyle=orthogonalEdgeStyle;curved=1;rounded=0;orthogonalLoop=1;jettySize=auto;html=1;exitX=1;exitY=0.5;exitDx=0;exitDy=0;entryX=0;entryY=0.5;entryDx=0;entryDy=0;" edge="1" parent="1" source="MjRy1rSu0ClUME5qkxlQ-10" target="MjRy1rSu0ClUME5qkxlQ-7">
          <mxGeometry relative="1" as="geometry" />
        </mxCell>
        <mxCell id="MjRy1rSu0ClUME5qkxlQ-10" value="市" style="ellipse;whiteSpace=wrap;html=1;aspect=fixed;" vertex="1" parent="1">
          <mxGeometry x="160" y="160" width="40" height="40" as="geometry" />
        </mxCell>
        <mxCell id="MjRy1rSu0ClUME5qkxlQ-15" value="街道" style="ellipse;whiteSpace=wrap;html=1;aspect=fixed;" vertex="1" parent="1">
          <mxGeometry x="280" y="160" width="40" height="40" as="geometry" />
        </mxCell>
        <mxCell id="MjRy1rSu0ClUME5qkxlQ-27" style="edgeStyle=orthogonalEdgeStyle;curved=1;rounded=0;orthogonalLoop=1;jettySize=auto;html=1;exitX=1;exitY=0.5;exitDx=0;exitDy=0;entryX=0;entryY=0.5;entryDx=0;entryDy=0;" edge="1" parent="1" source="MjRy1rSu0ClUME5qkxlQ-17" target="MjRy1rSu0ClUME5qkxlQ-10">
          <mxGeometry relative="1" as="geometry" />
        </mxCell>
        <mxCell id="MjRy1rSu0ClUME5qkxlQ-17" value="省" style="ellipse;whiteSpace=wrap;html=1;aspect=fixed;" vertex="1" parent="1">
          <mxGeometry x="100" y="160" width="40" height="40" as="geometry" />
        </mxCell>
        <mxCell id="MjRy1rSu0ClUME5qkxlQ-22" value="本体库树状结构图" style="rounded=0;whiteSpace=wrap;html=1;" vertex="1" parent="1">
          <mxGeometry width="20" height="210" as="geometry" />
        </mxCell>
        <mxCell id="MjRy1rSu0ClUME5qkxlQ-23" value="实体库网络关系图" style="rounded=0;whiteSpace=wrap;html=1;" vertex="1" parent="1">
          <mxGeometry y="260" width="20" height="210" as="geometry" />
        </mxCell>
        <mxCell id="MjRy1rSu0ClUME5qkxlQ-24" value="" style="endArrow=none;dashed=1;html=1;rounded=0;curved=1;" edge="1" parent="1">
          <mxGeometry width="50" height="50" relative="1" as="geometry">
            <mxPoint x="-3" y="240" as="sourcePoint" />
            <mxPoint x="827" y="240" as="targetPoint" />
          </mxGeometry>
        </mxCell>
        <mxCell id="MjRy1rSu0ClUME5qkxlQ-26" value="位于" style="text;html=1;resizable=0;autosize=1;align=center;verticalAlign=middle;points=[];fillColor=none;strokeColor=none;rounded=0;" vertex="1" parent="1">
          <mxGeometry x="290" y="40" width="40" height="20" as="geometry" />
        </mxCell>
        <mxCell id="MjRy1rSu0ClUME5qkxlQ-45" style="edgeStyle=orthogonalEdgeStyle;curved=1;rounded=0;orthogonalLoop=1;jettySize=auto;html=1;exitX=0;exitY=1;exitDx=0;exitDy=0;entryX=0.5;entryY=0;entryDx=0;entryDy=0;" edge="1" parent="1" source="MjRy1rSu0ClUME5qkxlQ-30" target="MjRy1rSu0ClUME5qkxlQ-31">
          <mxGeometry relative="1" as="geometry" />
        </mxCell>
        <mxCell id="MjRy1rSu0ClUME5qkxlQ-46" style="edgeStyle=orthogonalEdgeStyle;curved=1;rounded=0;orthogonalLoop=1;jettySize=auto;html=1;exitX=0.5;exitY=1;exitDx=0;exitDy=0;entryX=0.5;entryY=0;entryDx=0;entryDy=0;" edge="1" parent="1" source="MjRy1rSu0ClUME5qkxlQ-30" target="MjRy1rSu0ClUME5qkxlQ-32">
          <mxGeometry relative="1" as="geometry" />
        </mxCell>
        <mxCell id="MjRy1rSu0ClUME5qkxlQ-47" style="edgeStyle=orthogonalEdgeStyle;curved=1;rounded=0;orthogonalLoop=1;jettySize=auto;html=1;exitX=1;exitY=1;exitDx=0;exitDy=0;entryX=0.5;entryY=0;entryDx=0;entryDy=0;" edge="1" parent="1" source="MjRy1rSu0ClUME5qkxlQ-30" target="MjRy1rSu0ClUME5qkxlQ-33">
          <mxGeometry relative="1" as="geometry" />
        </mxCell>
        <mxCell id="MjRy1rSu0ClUME5qkxlQ-30" value="行业" style="ellipse;whiteSpace=wrap;html=1;aspect=fixed;" vertex="1" parent="1">
          <mxGeometry x="430" y="80" width="40" height="40" as="geometry" />
        </mxCell>
        <mxCell id="MjRy1rSu0ClUME5qkxlQ-48" style="edgeStyle=orthogonalEdgeStyle;curved=1;rounded=0;orthogonalLoop=1;jettySize=auto;html=1;exitX=1;exitY=0.5;exitDx=0;exitDy=0;entryX=0;entryY=0.5;entryDx=0;entryDy=0;" edge="1" parent="1" source="MjRy1rSu0ClUME5qkxlQ-31" target="MjRy1rSu0ClUME5qkxlQ-32">
          <mxGeometry relative="1" as="geometry" />
        </mxCell>
        <mxCell id="MjRy1rSu0ClUME5qkxlQ-31" value="行业&lt;br&gt;大类" style="ellipse;whiteSpace=wrap;html=1;aspect=fixed;" vertex="1" parent="1">
          <mxGeometry x="360" y="160" width="40" height="40" as="geometry" />
        </mxCell>
        <mxCell id="MjRy1rSu0ClUME5qkxlQ-49" style="edgeStyle=orthogonalEdgeStyle;curved=1;rounded=0;orthogonalLoop=1;jettySize=auto;html=1;exitX=1;exitY=0.5;exitDx=0;exitDy=0;entryX=0;entryY=0.5;entryDx=0;entryDy=0;" edge="1" parent="1" source="MjRy1rSu0ClUME5qkxlQ-32" target="MjRy1rSu0ClUME5qkxlQ-33">
          <mxGeometry relative="1" as="geometry" />
        </mxCell>
        <mxCell id="MjRy1rSu0ClUME5qkxlQ-32" value="行业&lt;br&gt;中类" style="ellipse;whiteSpace=wrap;html=1;aspect=fixed;" vertex="1" parent="1">
          <mxGeometry x="430" y="160" width="40" height="40" as="geometry" />
        </mxCell>
        <mxCell id="MjRy1rSu0ClUME5qkxlQ-33" value="行业&lt;br&gt;小类" style="ellipse;whiteSpace=wrap;html=1;aspect=fixed;" vertex="1" parent="1">
          <mxGeometry x="500" y="160" width="40" height="40" as="geometry" />
        </mxCell>
        <mxCell id="MjRy1rSu0ClUME5qkxlQ-35" value="属于" style="text;html=1;resizable=0;autosize=1;align=center;verticalAlign=middle;points=[];fillColor=none;strokeColor=none;rounded=0;" vertex="1" parent="1">
          <mxGeometry x="450" y="50" width="40" height="20" as="geometry" />
        </mxCell>
        <mxCell id="MjRy1rSu0ClUME5qkxlQ-36" value="子类" style="text;html=1;resizable=0;autosize=1;align=center;verticalAlign=middle;points=[];fillColor=none;strokeColor=none;rounded=0;" vertex="1" parent="1">
          <mxGeometry x="130" y="200" width="40" height="20" as="geometry" />
        </mxCell>
        <mxCell id="MjRy1rSu0ClUME5qkxlQ-37" value="子类" style="text;html=1;resizable=0;autosize=1;align=center;verticalAlign=middle;points=[];fillColor=none;strokeColor=none;rounded=0;" vertex="1" parent="1">
          <mxGeometry x="190" y="200" width="40" height="20" as="geometry" />
        </mxCell>
        <mxCell id="MjRy1rSu0ClUME5qkxlQ-38" value="子类" style="text;html=1;resizable=0;autosize=1;align=center;verticalAlign=middle;points=[];fillColor=none;strokeColor=none;rounded=0;" vertex="1" parent="1">
          <mxGeometry x="250" y="200" width="40" height="20" as="geometry" />
        </mxCell>
        <mxCell id="MjRy1rSu0ClUME5qkxlQ-39" value="子类" style="text;html=1;resizable=0;autosize=1;align=center;verticalAlign=middle;points=[];fillColor=none;strokeColor=none;rounded=0;" vertex="1" parent="1">
          <mxGeometry x="70" y="120" width="40" height="20" as="geometry" />
        </mxCell>
        <mxCell id="MjRy1rSu0ClUME5qkxlQ-42" value="子类" style="text;html=1;resizable=0;autosize=1;align=center;verticalAlign=middle;points=[];fillColor=none;strokeColor=none;rounded=0;" vertex="1" parent="1">
          <mxGeometry x="150" y="125" width="40" height="20" as="geometry" />
        </mxCell>
        <mxCell id="MjRy1rSu0ClUME5qkxlQ-43" value="子类" style="text;html=1;resizable=0;autosize=1;align=center;verticalAlign=middle;points=[];fillColor=none;strokeColor=none;rounded=0;" vertex="1" parent="1">
          <mxGeometry x="240" y="125" width="40" height="20" as="geometry" />
        </mxCell>
        <mxCell id="MjRy1rSu0ClUME5qkxlQ-44" value="子类" style="text;html=1;resizable=0;autosize=1;align=center;verticalAlign=middle;points=[];fillColor=none;strokeColor=none;rounded=0;" vertex="1" parent="1">
          <mxGeometry x="290" y="110" width="40" height="20" as="geometry" />
        </mxCell>
        <mxCell id="MjRy1rSu0ClUME5qkxlQ-50" value="子类" style="text;html=1;resizable=0;autosize=1;align=center;verticalAlign=middle;points=[];fillColor=none;strokeColor=none;rounded=0;" vertex="1" parent="1">
          <mxGeometry x="374" y="105" width="40" height="20" as="geometry" />
        </mxCell>
        <mxCell id="MjRy1rSu0ClUME5qkxlQ-52" value="子类" style="text;html=1;resizable=0;autosize=1;align=center;verticalAlign=middle;points=[];fillColor=none;strokeColor=none;rounded=0;" vertex="1" parent="1">
          <mxGeometry x="410" y="130" width="40" height="20" as="geometry" />
        </mxCell>
        <mxCell id="MjRy1rSu0ClUME5qkxlQ-53" value="子类" style="text;html=1;resizable=0;autosize=1;align=center;verticalAlign=middle;points=[];fillColor=none;strokeColor=none;rounded=0;" vertex="1" parent="1">
          <mxGeometry x="460" y="130" width="40" height="20" as="geometry" />
        </mxCell>
        <mxCell id="MjRy1rSu0ClUME5qkxlQ-54" value="包含" style="text;html=1;resizable=0;autosize=1;align=center;verticalAlign=middle;points=[];fillColor=none;strokeColor=none;rounded=0;" vertex="1" parent="1">
          <mxGeometry x="394" y="190" width="40" height="20" as="geometry" />
        </mxCell>
        <mxCell id="MjRy1rSu0ClUME5qkxlQ-55" value="包含" style="text;html=1;resizable=0;autosize=1;align=center;verticalAlign=middle;points=[];fillColor=none;strokeColor=none;rounded=0;" vertex="1" parent="1">
          <mxGeometry x="470" y="200" width="40" height="20" as="geometry" />
        </mxCell>
        <mxCell id="MjRy1rSu0ClUME5qkxlQ-57" style="edgeStyle=orthogonalEdgeStyle;curved=1;rounded=0;orthogonalLoop=1;jettySize=auto;html=1;exitX=1;exitY=0.5;exitDx=0;exitDy=0;entryX=0.5;entryY=1;entryDx=0;entryDy=0;" edge="1" parent="1" source="MjRy1rSu0ClUME5qkxlQ-58" target="MjRy1rSu0ClUME5qkxlQ-177">
          <mxGeometry relative="1" as="geometry">
            <mxPoint x="450" y="515" as="targetPoint" />
          </mxGeometry>
        </mxCell>
        <mxCell id="MjRy1rSu0ClUME5qkxlQ-160" style="edgeStyle=orthogonalEdgeStyle;curved=1;rounded=0;orthogonalLoop=1;jettySize=auto;html=1;exitX=0;exitY=0.5;exitDx=0;exitDy=0;entryX=1;entryY=0.5;entryDx=0;entryDy=0;" edge="1" parent="1" source="MjRy1rSu0ClUME5qkxlQ-58" target="MjRy1rSu0ClUME5qkxlQ-141">
          <mxGeometry relative="1" as="geometry" />
        </mxCell>
        <mxCell id="MjRy1rSu0ClUME5qkxlQ-197" style="edgeStyle=orthogonalEdgeStyle;curved=1;rounded=0;orthogonalLoop=1;jettySize=auto;html=1;exitX=0;exitY=0.5;exitDx=0;exitDy=0;entryX=0.5;entryY=0;entryDx=0;entryDy=0;dashed=1;" edge="1" parent="1" source="MjRy1rSu0ClUME5qkxlQ-58" target="MjRy1rSu0ClUME5qkxlQ-194">
          <mxGeometry relative="1" as="geometry" />
        </mxCell>
        <mxCell id="MjRy1rSu0ClUME5qkxlQ-199" style="edgeStyle=orthogonalEdgeStyle;curved=1;rounded=0;orthogonalLoop=1;jettySize=auto;html=1;exitX=0;exitY=1;exitDx=0;exitDy=0;entryX=0.5;entryY=0;entryDx=0;entryDy=0;dashed=1;" edge="1" parent="1" source="MjRy1rSu0ClUME5qkxlQ-58" target="MjRy1rSu0ClUME5qkxlQ-198">
          <mxGeometry relative="1" as="geometry" />
        </mxCell>
        <mxCell id="MjRy1rSu0ClUME5qkxlQ-206" style="edgeStyle=orthogonalEdgeStyle;curved=1;rounded=0;orthogonalLoop=1;jettySize=auto;html=1;exitX=1;exitY=0.5;exitDx=0;exitDy=0;entryX=0;entryY=0;entryDx=0;entryDy=0;" edge="1" parent="1" source="MjRy1rSu0ClUME5qkxlQ-58" target="MjRy1rSu0ClUME5qkxlQ-204">
          <mxGeometry relative="1" as="geometry" />
        </mxCell>
        <mxCell id="MjRy1rSu0ClUME5qkxlQ-58" value="enterprise001" style="ellipse;whiteSpace=wrap;html=1;aspect=fixed;" vertex="1" parent="1">
          <mxGeometry x="334" y="440" width="70" height="70" as="geometry" />
        </mxCell>
        <mxCell id="MjRy1rSu0ClUME5qkxlQ-71" value="位于" style="text;html=1;resizable=0;autosize=1;align=center;verticalAlign=middle;points=[];fillColor=none;strokeColor=none;rounded=0;" vertex="1" parent="1">
          <mxGeometry x="250" y="460" width="40" height="20" as="geometry" />
        </mxCell>
        <mxCell id="MjRy1rSu0ClUME5qkxlQ-81" value="属于" style="text;html=1;resizable=0;autosize=1;align=center;verticalAlign=middle;points=[];fillColor=none;strokeColor=none;rounded=0;" vertex="1" parent="1">
          <mxGeometry x="414" y="450" width="40" height="20" as="geometry" />
        </mxCell>
        <mxCell id="MjRy1rSu0ClUME5qkxlQ-128" style="edgeStyle=orthogonalEdgeStyle;curved=1;rounded=0;orthogonalLoop=1;jettySize=auto;html=1;exitX=1;exitY=0.5;exitDx=0;exitDy=0;entryX=0;entryY=0.5;entryDx=0;entryDy=0;" edge="1" source="MjRy1rSu0ClUME5qkxlQ-129" target="MjRy1rSu0ClUME5qkxlQ-132" parent="1">
          <mxGeometry relative="1" as="geometry" />
        </mxCell>
        <mxCell id="MjRy1rSu0ClUME5qkxlQ-129" value="徐汇区" style="ellipse;whiteSpace=wrap;html=1;aspect=fixed;" vertex="1" parent="1">
          <mxGeometry x="220" y="300" width="40" height="40" as="geometry" />
        </mxCell>
        <mxCell id="MjRy1rSu0ClUME5qkxlQ-130" style="edgeStyle=orthogonalEdgeStyle;curved=1;rounded=0;orthogonalLoop=1;jettySize=auto;html=1;exitX=1;exitY=0.5;exitDx=0;exitDy=0;entryX=0;entryY=0.5;entryDx=0;entryDy=0;" edge="1" source="MjRy1rSu0ClUME5qkxlQ-131" target="MjRy1rSu0ClUME5qkxlQ-129" parent="1">
          <mxGeometry relative="1" as="geometry" />
        </mxCell>
        <mxCell id="MjRy1rSu0ClUME5qkxlQ-131" value="上海市" style="ellipse;whiteSpace=wrap;html=1;aspect=fixed;" vertex="1" parent="1">
          <mxGeometry x="160" y="300" width="40" height="40" as="geometry" />
        </mxCell>
        <mxCell id="MjRy1rSu0ClUME5qkxlQ-132" value="虹漕路" style="ellipse;whiteSpace=wrap;html=1;aspect=fixed;" vertex="1" parent="1">
          <mxGeometry x="280" y="300" width="40" height="40" as="geometry" />
        </mxCell>
        <mxCell id="MjRy1rSu0ClUME5qkxlQ-133" style="edgeStyle=orthogonalEdgeStyle;curved=1;rounded=0;orthogonalLoop=1;jettySize=auto;html=1;exitX=1;exitY=0.5;exitDx=0;exitDy=0;entryX=0;entryY=0.5;entryDx=0;entryDy=0;" edge="1" source="MjRy1rSu0ClUME5qkxlQ-134" target="MjRy1rSu0ClUME5qkxlQ-131" parent="1">
          <mxGeometry relative="1" as="geometry" />
        </mxCell>
        <mxCell id="MjRy1rSu0ClUME5qkxlQ-134" value="上海[省]" style="ellipse;whiteSpace=wrap;html=1;aspect=fixed;" vertex="1" parent="1">
          <mxGeometry x="100" y="300" width="40" height="40" as="geometry" />
        </mxCell>
        <mxCell id="MjRy1rSu0ClUME5qkxlQ-135" value="位于" style="text;html=1;resizable=0;autosize=1;align=center;verticalAlign=middle;points=[];fillColor=none;strokeColor=none;rounded=0;" vertex="1" parent="1">
          <mxGeometry x="120" y="370" width="40" height="20" as="geometry" />
        </mxCell>
        <mxCell id="MjRy1rSu0ClUME5qkxlQ-136" value="位于" style="text;html=1;resizable=0;autosize=1;align=center;verticalAlign=middle;points=[];fillColor=none;strokeColor=none;rounded=0;" vertex="1" parent="1">
          <mxGeometry x="190" y="340" width="40" height="20" as="geometry" />
        </mxCell>
        <mxCell id="MjRy1rSu0ClUME5qkxlQ-137" value="位于" style="text;html=1;resizable=0;autosize=1;align=center;verticalAlign=middle;points=[];fillColor=none;strokeColor=none;rounded=0;" vertex="1" parent="1">
          <mxGeometry x="250" y="355" width="40" height="20" as="geometry" />
        </mxCell>
        <mxCell id="MjRy1rSu0ClUME5qkxlQ-161" style="edgeStyle=orthogonalEdgeStyle;curved=1;rounded=0;orthogonalLoop=1;jettySize=auto;html=1;exitX=0;exitY=0.5;exitDx=0;exitDy=0;entryX=0.5;entryY=1;entryDx=0;entryDy=0;" edge="1" parent="1" source="MjRy1rSu0ClUME5qkxlQ-141" target="MjRy1rSu0ClUME5qkxlQ-134">
          <mxGeometry relative="1" as="geometry" />
        </mxCell>
        <mxCell id="MjRy1rSu0ClUME5qkxlQ-162" style="edgeStyle=orthogonalEdgeStyle;curved=1;rounded=0;orthogonalLoop=1;jettySize=auto;html=1;exitX=0;exitY=0;exitDx=0;exitDy=0;entryX=0.5;entryY=1;entryDx=0;entryDy=0;" edge="1" parent="1" source="MjRy1rSu0ClUME5qkxlQ-141" target="MjRy1rSu0ClUME5qkxlQ-131">
          <mxGeometry relative="1" as="geometry" />
        </mxCell>
        <mxCell id="MjRy1rSu0ClUME5qkxlQ-163" style="edgeStyle=orthogonalEdgeStyle;curved=1;rounded=0;orthogonalLoop=1;jettySize=auto;html=1;exitX=0.5;exitY=0;exitDx=0;exitDy=0;entryX=0.5;entryY=1;entryDx=0;entryDy=0;" edge="1" parent="1" source="MjRy1rSu0ClUME5qkxlQ-141" target="MjRy1rSu0ClUME5qkxlQ-129">
          <mxGeometry relative="1" as="geometry" />
        </mxCell>
        <mxCell id="MjRy1rSu0ClUME5qkxlQ-164" style="edgeStyle=orthogonalEdgeStyle;curved=1;rounded=0;orthogonalLoop=1;jettySize=auto;html=1;exitX=1;exitY=0;exitDx=0;exitDy=0;entryX=0.5;entryY=1;entryDx=0;entryDy=0;" edge="1" parent="1" source="MjRy1rSu0ClUME5qkxlQ-141" target="MjRy1rSu0ClUME5qkxlQ-132">
          <mxGeometry relative="1" as="geometry" />
        </mxCell>
        <mxCell id="MjRy1rSu0ClUME5qkxlQ-141" value="上海市徐汇区虹漕路" style="ellipse;whiteSpace=wrap;html=1;aspect=fixed;" vertex="1" parent="1">
          <mxGeometry x="170" y="380" width="70" height="70" as="geometry" />
        </mxCell>
        <mxCell id="MjRy1rSu0ClUME5qkxlQ-142" value="包含" style="text;html=1;resizable=0;autosize=1;align=center;verticalAlign=middle;points=[];fillColor=none;strokeColor=none;rounded=0;" vertex="1" parent="1">
          <mxGeometry x="130" y="280" width="40" height="20" as="geometry" />
        </mxCell>
        <mxCell id="MjRy1rSu0ClUME5qkxlQ-143" value="包含" style="text;html=1;resizable=0;autosize=1;align=center;verticalAlign=middle;points=[];fillColor=none;strokeColor=none;rounded=0;" vertex="1" parent="1">
          <mxGeometry x="190" y="280" width="40" height="20" as="geometry" />
        </mxCell>
        <mxCell id="MjRy1rSu0ClUME5qkxlQ-144" value="包含" style="text;html=1;resizable=0;autosize=1;align=center;verticalAlign=middle;points=[];fillColor=none;strokeColor=none;rounded=0;" vertex="1" parent="1">
          <mxGeometry x="250" y="280" width="40" height="20" as="geometry" />
        </mxCell>
        <mxCell id="MjRy1rSu0ClUME5qkxlQ-170" style="edgeStyle=orthogonalEdgeStyle;curved=1;rounded=0;orthogonalLoop=1;jettySize=auto;html=1;exitX=1;exitY=0.5;exitDx=0;exitDy=0;entryX=0;entryY=0.5;entryDx=0;entryDy=0;" edge="1" parent="1" source="MjRy1rSu0ClUME5qkxlQ-167" target="MjRy1rSu0ClUME5qkxlQ-168">
          <mxGeometry relative="1" as="geometry" />
        </mxCell>
        <mxCell id="MjRy1rSu0ClUME5qkxlQ-167" value="零售业" style="ellipse;whiteSpace=wrap;html=1;aspect=fixed;" vertex="1" parent="1">
          <mxGeometry x="349" y="295" width="40" height="40" as="geometry" />
        </mxCell>
        <mxCell id="MjRy1rSu0ClUME5qkxlQ-171" style="edgeStyle=orthogonalEdgeStyle;curved=1;rounded=0;orthogonalLoop=1;jettySize=auto;html=1;exitX=1;exitY=0.5;exitDx=0;exitDy=0;entryX=0;entryY=0.5;entryDx=0;entryDy=0;" edge="1" parent="1" source="MjRy1rSu0ClUME5qkxlQ-168" target="MjRy1rSu0ClUME5qkxlQ-169">
          <mxGeometry relative="1" as="geometry" />
        </mxCell>
        <mxCell id="MjRy1rSu0ClUME5qkxlQ-168" value="货摊、无店铺及其他零售业" style="ellipse;whiteSpace=wrap;html=1;aspect=fixed;" vertex="1" parent="1">
          <mxGeometry x="460" y="280" width="70" height="70" as="geometry" />
        </mxCell>
        <mxCell id="MjRy1rSu0ClUME5qkxlQ-169" value="其他未列明零售业" style="ellipse;whiteSpace=wrap;html=1;aspect=fixed;" vertex="1" parent="1">
          <mxGeometry x="610" y="282.5" width="65" height="65" as="geometry" />
        </mxCell>
        <mxCell id="MjRy1rSu0ClUME5qkxlQ-175" value="包含" style="text;html=1;resizable=0;autosize=1;align=center;verticalAlign=middle;points=[];fillColor=none;strokeColor=none;rounded=0;" vertex="1" parent="1">
          <mxGeometry x="520" y="290" width="40" height="20" as="geometry" />
        </mxCell>
        <mxCell id="MjRy1rSu0ClUME5qkxlQ-176" value="包含" style="text;html=1;resizable=0;autosize=1;align=center;verticalAlign=middle;points=[];fillColor=none;strokeColor=none;rounded=0;" vertex="1" parent="1">
          <mxGeometry x="394" y="291" width="40" height="20" as="geometry" />
        </mxCell>
        <mxCell id="MjRy1rSu0ClUME5qkxlQ-178" style="edgeStyle=orthogonalEdgeStyle;curved=1;rounded=0;orthogonalLoop=1;jettySize=auto;html=1;exitX=0;exitY=0;exitDx=0;exitDy=0;entryX=1;entryY=1;entryDx=0;entryDy=0;" edge="1" parent="1" source="MjRy1rSu0ClUME5qkxlQ-177" target="MjRy1rSu0ClUME5qkxlQ-167">
          <mxGeometry relative="1" as="geometry" />
        </mxCell>
        <mxCell id="MjRy1rSu0ClUME5qkxlQ-179" style="edgeStyle=orthogonalEdgeStyle;curved=1;rounded=0;orthogonalLoop=1;jettySize=auto;html=1;exitX=0.5;exitY=0;exitDx=0;exitDy=0;entryX=0.5;entryY=1;entryDx=0;entryDy=0;" edge="1" parent="1" source="MjRy1rSu0ClUME5qkxlQ-177" target="MjRy1rSu0ClUME5qkxlQ-168">
          <mxGeometry relative="1" as="geometry" />
        </mxCell>
        <mxCell id="MjRy1rSu0ClUME5qkxlQ-180" style="edgeStyle=orthogonalEdgeStyle;curved=1;rounded=0;orthogonalLoop=1;jettySize=auto;html=1;exitX=1;exitY=0;exitDx=0;exitDy=0;entryX=0;entryY=1;entryDx=0;entryDy=0;" edge="1" parent="1" source="MjRy1rSu0ClUME5qkxlQ-177" target="MjRy1rSu0ClUME5qkxlQ-169">
          <mxGeometry relative="1" as="geometry" />
        </mxCell>
        <mxCell id="MjRy1rSu0ClUME5qkxlQ-177" value="批发和零售业" style="ellipse;whiteSpace=wrap;html=1;aspect=fixed;" vertex="1" parent="1">
          <mxGeometry x="430" y="380" width="60" height="60" as="geometry" />
        </mxCell>
        <mxCell id="MjRy1rSu0ClUME5qkxlQ-181" value="大类" style="text;html=1;resizable=0;autosize=1;align=center;verticalAlign=middle;points=[];fillColor=none;strokeColor=none;rounded=0;" vertex="1" parent="1">
          <mxGeometry x="364" y="360" width="40" height="20" as="geometry" />
        </mxCell>
        <mxCell id="MjRy1rSu0ClUME5qkxlQ-182" value="中类&lt;span style=&quot;color: rgba(0 , 0 , 0 , 0) ; font-family: monospace ; font-size: 0px&quot;&gt;%3CmxGraphModel%3E%3Croot%3E%3CmxCell%20id%3D%220%22%2F%3E%3CmxCell%20id%3D%221%22%20parent%3D%220%22%2F%3E%3CmxCell%20id%3D%222%22%20value%3D%22%E4%BD%8D%E4%BA%8E%22%20style%3D%22text%3Bhtml%3D1%3Bresizable%3D0%3Bautosize%3D1%3Balign%3Dcenter%3BverticalAlign%3Dmiddle%3Bpoints%3D%5B%5D%3BfillColor%3Dnone%3BstrokeColor%3Dnone%3Brounded%3D0%3B%22%20vertex%3D%221%22%20parent%3D%221%22%3E%3CmxGeometry%20x%3D%22190%22%20y%3D%22400%22%20width%3D%2240%22%20height%3D%2220%22%20as%3D%22geometry%22%2F%3E%3C%2FmxCell%3E%3C%2Froot%3E%3C%2FmxGraphModel%3E&lt;/span&gt;" style="text;html=1;resizable=0;autosize=1;align=center;verticalAlign=middle;points=[];fillColor=none;strokeColor=none;rounded=0;" vertex="1" parent="1">
          <mxGeometry x="420" y="355" width="40" height="20" as="geometry" />
        </mxCell>
        <mxCell id="MjRy1rSu0ClUME5qkxlQ-184" value="位于" style="text;html=1;resizable=0;autosize=1;align=center;verticalAlign=middle;points=[];fillColor=none;strokeColor=none;rounded=0;" vertex="1" parent="1">
          <mxGeometry x="140" y="340" width="40" height="20" as="geometry" />
        </mxCell>
        <mxCell id="MjRy1rSu0ClUME5qkxlQ-187" value="小类" style="text;html=1;resizable=0;autosize=1;align=center;verticalAlign=middle;points=[];fillColor=none;strokeColor=none;rounded=0;" vertex="1" parent="1">
          <mxGeometry x="550" y="350" width="40" height="20" as="geometry" />
        </mxCell>
        <mxCell id="MjRy1rSu0ClUME5qkxlQ-188" value="" style="ellipse;whiteSpace=wrap;html=1;aspect=fixed;" vertex="1" parent="1">
          <mxGeometry x="652" y="40" width="17.5" height="17.5" as="geometry" />
        </mxCell>
        <mxCell id="MjRy1rSu0ClUME5qkxlQ-189" value="圆圈表示实体/节点" style="text;html=1;resizable=0;autosize=1;align=center;verticalAlign=middle;points=[];fillColor=none;strokeColor=none;rounded=0;" vertex="1" parent="1">
          <mxGeometry x="692" y="40" width="110" height="20" as="geometry" />
        </mxCell>
        <mxCell id="MjRy1rSu0ClUME5qkxlQ-192" value="" style="rounded=0;whiteSpace=wrap;html=1;" vertex="1" parent="1">
          <mxGeometry x="652" y="80" width="25" height="15" as="geometry" />
        </mxCell>
        <mxCell id="MjRy1rSu0ClUME5qkxlQ-193" value="矩形表示某类节点的属性" style="text;html=1;resizable=0;autosize=1;align=center;verticalAlign=middle;points=[];fillColor=none;strokeColor=none;rounded=0;" vertex="1" parent="1">
          <mxGeometry x="682" y="75" width="150" height="20" as="geometry" />
        </mxCell>
        <mxCell id="MjRy1rSu0ClUME5qkxlQ-194" value="&lt;b&gt;name：&lt;br&gt;&lt;/b&gt;微软（中国）有限公司上海分公司" style="whiteSpace=wrap;html=1;" vertex="1" parent="1">
          <mxGeometry x="30" y="555" width="120" height="60" as="geometry" />
        </mxCell>
        <mxCell id="MjRy1rSu0ClUME5qkxlQ-198" value="&lt;span style=&quot;color: rgba(0 , 0 , 0 , 0.87) ; font-family: , &amp;#34;blinkmacsystemfont&amp;#34; , &amp;#34;segoe ui&amp;#34; , &amp;#34;helvetica&amp;#34; , &amp;#34;arial&amp;#34; , sans-serif , &amp;#34;apple color emoji&amp;#34; , &amp;#34;segoe ui emoji&amp;#34; , &amp;#34;segoe ui symbol&amp;#34; ; font-weight: 700 ; text-align: right ; background-color: rgb(255 , 255 , 255)&quot;&gt;&lt;br&gt;CreditCode：&lt;/span&gt;&lt;table border=&quot;1&quot; class=&quot;dataframe&quot; style=&quot;border-collapse: collapse ; border-spacing: 0px ; border: none ; color: rgba(0 , 0 , 0 , 0.87) ; table-layout: fixed ; margin-left: 0px ; margin-right: 0px ; margin-bottom: 1em ; font-family: , &amp;#34;blinkmacsystemfont&amp;#34; , &amp;#34;segoe ui&amp;#34; , &amp;#34;helvetica&amp;#34; , &amp;#34;arial&amp;#34; , sans-serif , &amp;#34;apple color emoji&amp;#34; , &amp;#34;segoe ui emoji&amp;#34; , &amp;#34;segoe ui symbol&amp;#34; ; background-color: rgb(255 , 255 , 255)&quot;&gt;&lt;tbody&gt;&lt;tr style=&quot;vertical-align: middle ; padding: 0.5em ; line-height: normal ; max-width: none ; border: none ; text-align: right&quot;&gt;&lt;td style=&quot;vertical-align: middle ; padding: 0.5em ; line-height: normal ; max-width: none ; border: none&quot;&gt;91310000X&lt;br&gt;07250301G&lt;br&gt;&lt;/td&gt;&lt;/tr&gt;&lt;/tbody&gt;&lt;/table&gt;" style="whiteSpace=wrap;html=1;" vertex="1" parent="1">
          <mxGeometry x="160" y="555" width="120" height="60" as="geometry" />
        </mxCell>
        <mxCell id="MjRy1rSu0ClUME5qkxlQ-200" value="规模" style="ellipse;whiteSpace=wrap;html=1;aspect=fixed;" vertex="1" parent="1">
          <mxGeometry x="560" y="80" width="40" height="40" as="geometry" />
        </mxCell>
        <mxCell id="MjRy1rSu0ClUME5qkxlQ-203" value="有" style="text;html=1;resizable=0;autosize=1;align=center;verticalAlign=middle;points=[];fillColor=none;strokeColor=none;rounded=0;" vertex="1" parent="1">
          <mxGeometry x="515" y="50" width="30" height="20" as="geometry" />
        </mxCell>
        <mxCell id="MjRy1rSu0ClUME5qkxlQ-204" value="400-499人" style="ellipse;whiteSpace=wrap;html=1;aspect=fixed;" vertex="1" parent="1">
          <mxGeometry x="600" y="385" width="60" height="60" as="geometry" />
        </mxCell>
        <mxCell id="MjRy1rSu0ClUME5qkxlQ-207" value="有" style="text;html=1;resizable=0;autosize=1;align=center;verticalAlign=middle;points=[];fillColor=none;strokeColor=none;rounded=0;" vertex="1" parent="1">
          <mxGeometry x="500" y="425" width="30" height="20" as="geometry" />
        </mxCell>
        <mxCell id="MjRy1rSu0ClUME5qkxlQ-208" value="&lt;span style=&quot;color: rgba(0 , 0 , 0 , 0.87) ; font-family: , &amp;#34;blinkmacsystemfont&amp;#34; , &amp;#34;segoe ui&amp;#34; , &amp;#34;helvetica&amp;#34; , &amp;#34;arial&amp;#34; , sans-serif , &amp;#34;apple color emoji&amp;#34; , &amp;#34;segoe ui emoji&amp;#34; , &amp;#34;segoe ui symbol&amp;#34; ; font-weight: 700 ; text-align: right ; background-color: rgb(255 , 255 , 255)&quot;&gt;InsuredCount：&lt;br&gt;477&lt;/span&gt;" style="whiteSpace=wrap;html=1;" vertex="1" parent="1">
          <mxGeometry x="294" y="555" width="120" height="60" as="geometry" />
        </mxCell>
        <mxCell id="MjRy1rSu0ClUME5qkxlQ-209" value="&lt;span style=&quot;color: rgba(0 , 0 , 0 , 0.87) ; font-family: , &amp;#34;blinkmacsystemfont&amp;#34; , &amp;#34;segoe ui&amp;#34; , &amp;#34;helvetica&amp;#34; , &amp;#34;arial&amp;#34; , sans-serif , &amp;#34;apple color emoji&amp;#34; , &amp;#34;segoe ui emoji&amp;#34; , &amp;#34;segoe ui symbol&amp;#34; ; font-weight: 700 ; text-align: right ; background-color: rgb(255 , 255 , 255)&quot;&gt;TermStart：&lt;br&gt;&lt;/span&gt;1996-6-13" style="whiteSpace=wrap;html=1;" vertex="1" parent="1">
          <mxGeometry x="425" y="555" width="120" height="60" as="geometry" />
        </mxCell>
      </root>
    </mxGraphModel>
  </diagram>
</mxfile>
